<?xml version="1.0" standalone="no"?><!DOCTYPE svg PUBLIC "-//W3C//DTD SVG 1.1//EN" "http://www.w3.org/Graphics/SVG/1.1/DTD/svg11.dtd"><svg t="1598823992969" class="icon" viewBox="0 0 1024 1024" version="1.1" xmlns="http://www.w3.org/2000/svg" p-id="2773" xmlns:xlink="http://www.w3.org/1999/xlink" width="200" height="200"><defs><style type="text/css"></style></defs><path d="M549.19 484.49m-357.43 0a357.43 357.43 0 1 0 714.86 0 357.43 357.43 0 1 0-714.86 0Z" fill="#99D1FF" p-id="2774"></path><path d="M484.66 861.92c-50.94 0-100.37-9.98-146.92-29.67-44.95-19.01-85.31-46.22-119.96-80.88s-61.87-75.02-80.88-119.96c-19.69-46.54-29.67-95.97-29.67-146.92s9.98-100.37 29.67-146.92c19.01-44.95 46.22-85.31 80.88-119.96 34.66-34.66 75.02-61.87 119.96-80.88 46.54-19.69 95.97-29.67 146.92-29.67s100.37 9.98 146.92 29.67c44.95 19.01 85.31 46.22 119.96 80.88 34.66 34.66 61.87 75.02 80.88 119.96 19.69 46.54 29.67 95.97 29.67 146.92s-9.98 100.37-29.67 146.92c-19.01 44.95-46.22 85.31-80.88 119.96-34.66 34.66-75.02 61.87-119.96 80.88-46.55 19.69-95.98 29.67-146.92 29.67z m0-714.85c-90.13 0-174.87 35.1-238.6 98.83-63.73 63.73-98.83 148.47-98.83 238.6s35.1 174.87 98.83 238.6c63.73 63.73 148.47 98.83 238.6 98.83s174.87-35.1 238.6-98.83c63.73-63.73 98.83-148.47 98.83-238.6s-35.1-174.87-98.83-238.6-148.47-98.83-238.6-98.83z" fill="#0072F0" p-id="2775"></path><path d="M648.72 292.64c-4.28 0-8.6-1.37-12.24-4.2-24.38-18.91-51.66-32.92-81.08-41.67-10.59-3.15-16.62-14.28-13.48-24.87 3.15-10.59 14.28-16.62 24.87-13.48 34.2 10.16 65.89 26.44 94.2 48.4 8.73 6.77 10.32 19.33 3.55 28.06a19.96 19.96 0 0 1-15.82 7.76zM896.77 916.93c-5.12 0-10.24-1.95-14.14-5.86L739.14 767.59c-7.81-7.81-7.81-20.47 0-28.28 7.81-7.81 20.47-7.81 28.28 0L910.9 882.79c7.81 7.81 7.81 20.47 0 28.28a19.88 19.88 0 0 1-14.13 5.86z" fill="#0072F0" p-id="2776"></path></svg>