<?xml version="1.0" standalone="no"?><!DOCTYPE svg PUBLIC "-//W3C//DTD SVG 1.1//EN" "http://www.w3.org/Graphics/SVG/1.1/DTD/svg11.dtd"><svg t="1598819304017" class="icon" viewBox="0 0 1024 1024" version="1.1" xmlns="http://www.w3.org/2000/svg" p-id="6001" xmlns:xlink="http://www.w3.org/1999/xlink" width="200" height="200"><defs><style type="text/css"></style></defs><path d="M511.094 205.75l0.887 0.512c4.228 2.441 9.686 0.979 12.127-3.249l71.656-124.112c2.441-4.228 0.979-9.686-3.249-12.127l-0.887-0.512c-4.228-2.441-9.685-0.979-12.127 3.249l-71.656 124.112c-2.441 4.229-0.979 9.686 3.249 12.127z" fill="#3B5EAD" p-id="6002"></path><path d="M198.772 153.65h626.186v804.228H198.772z" fill="#EDEDED" p-id="6003"></path><path d="M198.803 643.689h626.186V959H198.803z" fill="#F3797D" p-id="6004"></path><path d="M332.236 644.374c0-0.499 5.398-18.39 11.996-39.759 13.398-43.393 19.979-58.477 27.494-63.018 2.804-1.694 21.055-8.103 40.558-14.242 36.35-11.442 58.074-20.754 65.014-27.866 2.529-2.592 4.315-8.443 5.015-16.435 1.065-12.15 0.898-12.628-8.001-22.91-4.999-5.775-11.247-15.996-13.885-22.713s-5.693-12.212-6.787-12.212c-6.069 0-14.025-32.048-8.712-35.096 0.971-0.557 0.799-6.436-0.382-13.065-2.792-15.672 1.247-37.94 8.562-47.197 2.867-3.629 7.059-10.232 9.315-14.673 10.045-19.774 28.76-24.954 65.029-18.001 16.007 3.069 30.47 3.112 37.623 0.113 4.965-2.082 10.766 10.662 10.766 23.654 0 5.872 1.604 15.046 3.565 20.387 2.743 7.471 3.285 14.07 2.351 28.606-0.686 10.666-0.344 19.394 0.785 20.041 6.064 3.479-1.149 31.392-9.137 35.36-2.249 1.117-4.11 3.589-4.136 5.493-0.08 5.824-8.103 20.33-16.51 29.854-7.788 8.822-7.943 9.329-6.572 21.507 2.325 20.645 12.238 26.997 71.279 45.668 54.373 17.195 50.059 12.03 67.158 80.404 4.768 19.066 8.669 35.192 8.669 35.836s-81.237 1.169-180.527 1.169-180.53-0.406-180.53-0.905z" fill="#2C4F98" p-id="6005"></path><path d="M332.236 644.406c0-0.482 5.398-17.755 11.996-38.385 13.398-41.894 19.979-56.458 27.494-60.841 2.804-1.636 21.055-7.823 40.558-13.75 36.35-11.047 58.074-20.037 65.014-26.903 2.529-2.503 4.315-8.152 5.015-15.867 1.065-11.731 0.898-12.192-8.001-22.118-4.999-5.576-11.247-15.444-13.885-21.928s-5.693-11.79-6.787-11.79c-6.069 0-14.025-30.941-8.712-33.883 0.971-0.538 0.799-6.214-0.382-12.613-2.792-15.13 1.247-36.63 8.562-45.567 2.867-3.503 7.059-9.878 9.315-14.166 10.045-19.091 28.76-24.093 65.029-17.379 16.007 2.963 30.47 3.005 37.623 0.109 4.965-2.01 10.766 10.293 10.766 22.837 0 5.669 1.604 14.526 3.565 19.683 2.743 7.213 3.285 13.584 2.351 27.618-0.686 10.298-0.344 18.724 0.785 19.349 6.064 3.358-1.149 30.308-9.137 34.139-2.249 1.078-4.11 3.465-4.136 5.303-0.08 5.623-8.103 19.628-16.51 28.823-7.788 8.517-7.943 9.007-6.572 20.764 2.325 19.932 12.238 26.064 71.279 44.091 54.373 16.601 50.059 11.614 67.158 77.627 4.768 18.408 8.669 33.977 8.669 34.598s-81.237 1.129-180.527 1.129-180.53-0.398-180.53-0.88z" fill="#3A5CAC" p-id="6006"></path><path d="M511.652 201.758m-22.352 0a22.352 22.352 0 1 0 44.704 0 22.352 22.352 0 1 0-44.704 0Z" fill="#DDDDDD" p-id="6007"></path><path d="M516.703 201.758m-22.352 0a22.352 22.352 0 1 0 44.704 0 22.352 22.352 0 1 0-44.704 0Z" fill="#FFFFFF" p-id="6008"></path><path d="M597.24 728.178H424.755c-5.544 0-10.038-4.494-10.038-10.038v-0.206c0-5.544 4.494-10.038 10.038-10.038H597.24c5.544 0 10.038 4.494 10.038 10.038v0.206c0 5.544-4.494 10.038-10.038 10.038zM693.525 795.667H328.471c-5.541 0-10.033-4.492-10.033-10.033v-0.206c0-5.541 4.492-10.033 10.033-10.033h365.055c5.541 0 10.033 4.492 10.033 10.033v0.206c-0.001 5.541-4.493 10.033-10.034 10.033zM339.837 862.959H328.45c-5.507 0-10.013-4.506-10.013-10.013v-0.205c0-5.507 4.506-10.013 10.013-10.013h11.387c5.507 0 10.013 4.506 10.013 10.013v0.205c0 5.508-4.506 10.013-10.013 10.013zM390.418 862.959h-11.387c-5.507 0-10.013-4.506-10.013-10.013v-0.205c0-5.507 4.506-10.013 10.013-10.013h11.387c5.507 0 10.013 4.506 10.013 10.013v0.205c0 5.508-4.506 10.013-10.013 10.013zM441 862.959h-11.387c-5.507 0-10.013-4.506-10.013-10.013v-0.205c0-5.507 4.506-10.013 10.013-10.013H441c5.507 0 10.013 4.506 10.013 10.013v0.205c-0.001 5.508-4.506 10.013-10.013 10.013zM491.581 862.959h-11.387c-5.507 0-10.013-4.506-10.013-10.013v-0.205c0-5.507 4.506-10.013 10.013-10.013h11.387c5.507 0 10.013 4.506 10.013 10.013v0.205c0 5.508-4.506 10.013-10.013 10.013zM542.163 862.959h-11.387c-5.507 0-10.013-4.506-10.013-10.013v-0.205c0-5.507 4.506-10.013 10.013-10.013h11.387c5.507 0 10.013 4.506 10.013 10.013v0.205c-0.001 5.508-4.506 10.013-10.013 10.013zM592.744 862.959h-11.387c-5.507 0-10.013-4.506-10.013-10.013v-0.205c0-5.507 4.506-10.013 10.013-10.013h11.387c5.507 0 10.013 4.506 10.013 10.013v0.205c0 5.508-4.506 10.013-10.013 10.013zM643.325 862.959h-11.387c-5.507 0-10.013-4.506-10.013-10.013v-0.205c0-5.507 4.506-10.013 10.013-10.013h11.387c5.507 0 10.013 4.506 10.013 10.013v0.205c0 5.508-4.506 10.013-10.013 10.013zM693.907 862.959H682.52c-5.507 0-10.013-4.506-10.013-10.013v-0.205c0-5.507 4.506-10.013 10.013-10.013h11.387c5.507 0 10.013 4.506 10.013 10.013v0.205c-0.001 5.508-4.506 10.013-10.013 10.013z" fill="#FFFFFF" p-id="6009"></path><path d="M520.355 205.75l-0.887 0.512c-4.228 2.441-9.686 0.979-12.127-3.249L435.686 78.901c-2.441-4.228-0.979-9.686 3.249-12.127l0.887-0.512c4.228-2.441 9.686-0.979 12.127 3.249l71.656 124.112c2.441 4.229 0.978 9.686-3.25 12.127z" fill="#3B5EAD" p-id="6010"></path></svg>