<?xml version="1.0" standalone="no"?><!DOCTYPE svg PUBLIC "-//W3C//DTD SVG 1.1//EN" "http://www.w3.org/Graphics/SVG/1.1/DTD/svg11.dtd"><svg t="1599510706106" class="icon" viewBox="0 0 1024 1024" version="1.1" xmlns="http://www.w3.org/2000/svg" p-id="3009" xmlns:xlink="http://www.w3.org/1999/xlink" width="200" height="200"><defs><style type="text/css"></style></defs><path d="M80 128m48 0l768 0q48 0 48 48l0 0q0 48-48 48l-768 0q-48 0-48-48l0 0q0-48 48-48Z" p-id="3010"></path><path d="M80 464m48 0l768 0q48 0 48 48l0 0q0 48-48 48l-768 0q-48 0-48-48l0 0q0-48 48-48Z" p-id="3011"></path><path d="M80 800m48 0l768 0q48 0 48 48l0 0q0 48-48 48l-768 0q-48 0-48-48l0 0q0-48 48-48Z" p-id="3012"></path></svg>