<?xml version="1.0" standalone="no"?><!DOCTYPE svg PUBLIC "-//W3C//DTD SVG 1.1//EN" "http://www.w3.org/Graphics/SVG/1.1/DTD/svg11.dtd"><svg class="icon" width="200px" height="200.00px" viewBox="0 0 1024 1024" version="1.1" xmlns="http://www.w3.org/2000/svg"><path fill="#EBEDF0" d="M512.042667 0.298667C227.242667 0.298667 0.298667 227.242667 0.298667 512S227.242667 1023.786667 512 1023.786667s511.744-226.944 511.744-511.744S796.842667 0.298667 512.042667 0.298667zM111.530667 516.48l396.074666 396.074667c-218.069333 0-396.074667-178.005333-396.074666-396.074667z m489.514666 387.157333L120.448 423.04C160.426667 245.034667 320.682667 111.530667 512 111.530667a404.309333 404.309333 0 0 1 324.864 164.693333L779.050667 325.12a326.698667 326.698667 0 0 0-271.445334-142.378667A322.346667 322.346667 0 0 0 200.533333 400.768l418.304 418.346667c102.4-35.626667 182.442667-124.586667 204.714667-231.424h-173.568v-75.648h262.570667c0 191.36-133.504 351.573333-311.509334 391.594666z" /></svg>